<?xml version="1.0" encoding="utf-8"?>
<!-- Generator: Adobe Illustrator 18.0.0, SVG Export Plug-In . SVG Version: 6.00 Build 0)  -->
<!DOCTYPE svg PUBLIC "-//W3C//DTD SVG 1.1//EN" "http://www.w3.org/Graphics/SVG/1.1/DTD/svg11.dtd">
<svg version="1.1" id="Layer_1" xmlns="http://www.w3.org/2000/svg" xmlns:xlink="http://www.w3.org/1999/xlink" x="0px" y="0px"
	 viewBox="23.7 74.2 955.2 786.1" enable-background="new 23.7 74.2 955.2 786.1" xml:space="preserve">
<g>
	<path d="M972.9,537.5c7.9,18.3,3.3,37.7,1,57.2c-2.2,19-5.4,38.2-12.6,56c-19.5,47.5-51.8,43.9-94.2,27.1
		c-19-7.4-44.6-20.2-65.1-20.4c-21.1-0.2-39,12.1-61,5.5c-8.3-2.4-15.7-6.9-23.7-10.2c-25.4-10.2-64.6-5.4-92.1-6.9
		c-21.6-1.2-43.4-1.7-65-4c-32.8-3.1-60.3,5.5-91.7,13.1c-38.4,9.3-74.3-2.2-112.6-5.4c-43.9-3.5-88.1,0.2-131,10.7
		c-18,4.5-35.8,9.8-53.9,13.8c-31.4,6.9-63.6-7.6-90.7-21.9c-12.4-6.6-32.5-14-42.3-24.2c-9.3-9.8-9.7-25.7-10.4-38.9
		c-1-17.3-5.4-37-3.5-53.9c2.1-18.5,12.8-37.5,17.1-55.8c4.1-18.1-6-37.5,1-55.1c4.1-10.5,15-19.4,21.6-28.5
		c13.8-19.2,25.2-48.5,52.2-48.2c13.3,0.2,25.1-4.8,35.2-13.5c1.2-1,2.9-1.6,4.3-2.2c-2.6-2.6-4-3.5-5.2-4.3
		c-3.6-2.6-6.4-6-6.4-10.5c-0.2-5.9-0.2-11.9,0.3-17.6c2.6-24.7,13.5-45.6,31.4-62.2C235,181.8,290.9,117,367.8,85.9
		c20-8.1,42-13,63.6-11.4c20.6,1.4,35.8,13.5,51.5,26.1c28.2,22.6,56.3,45.4,84.8,67.7c14,11.1,23.8,24.7,29.5,41.5
		c7.4,21.6,18,42,31.8,60.3c17.8,23.5,39,43,65.5,56.3c20.7,10.2,39.9,3.8,62,5.5c30.1,2.4,54.9,21.4,79.1,37.7
		c24.9,16.6,47.5,35.8,61.9,62.5c11.1,20.6,22.8,41.3,37.5,59.6c10.9,13.5,26.3,25.1,35.1,40.6C971.1,534.1,972.2,536,972.9,537.5z"
		/>
	<path fill="#FFFFFF" d="M246,347.8c11.6,7.3,23.8,11.9,38.4,17.6c24.7,9.8,49.4,19.7,74.5,28.7c53.2,19.2,108.3,32.8,163.1,47.2
		c59.4,15.5,119,30.8,176.9,51.3c18.7,6.7,37.1,14.2,55.8,21.4h0.2c4.8,1.9,4.1,9-0.7,10.4c-13.3,3.6-26.3,2.2-39.6-0.9
		c-14.5-3.5-29.5-4.7-44.4-7.1c-4.7-0.7-9.2-2.2-13.5-4c-27.5-9.3-54.9-19-82.4-28.2c-16.1-5.4-33-6-49.8-7.4
		c-28.5-2.2-55.8-9.2-82.9-17.6c-60.1-18.8-120.2-37.8-180.5-56.5c-18-5.5-36.3-9.3-55.3-7.8c-4.8,0.3-21.8,9.3-31.4,26.6
		c-9.5,17.1-33.3,23-51.3,33.3c-22.6,13-56,13.8-62.2,18.5c-5,4-2.1,14.3-3.6,19.5c-1.6,4.7-5,7.8-6.4,12.6
		c-3.1,10.7,2.6,23.8,11.6,29.9c13.3,8.8,30.6,7.8,46.5,6.4c54.6-4.8,109.4-9.3,164-14.2c70.1-6,140.5-12.1,211-9.7
		c92.8,3.5,184.2,21.6,276.4,31.8c34.7,3.8,69.8,6.6,104.7,9.2c27.5,2.1,57.4,3.6,78.1-18.5c2.9-3.1,7.4-3.6,10.7-1.4
		c12.6,8.8,13.8,28,10.5,44.6c-6.7,34.7-0.3,58.9-25.7,83.4c-11.4,11.1-28.7,15-36.6,0.7c-5.7-10.4-2.2-23.3,7.4-30.1
		c11.2-7.8,23.2-14.9,28.2-27.1c9.3-23-9.2-37.5-32.3-36.8c-37.5,1.2-38.4,36.1-50.6,61c-4.7,9.3-14.3,17.1-24.7,16.1
		c-5.9-0.5-11.1-3.6-16.4-6c-15.7-6.7-31.3,4.7-46.6,7.8c-12.1,2.4-35.8-2.9-35.4-18.7c0.3-16.2,20.4-26.1,22.5-42.2
		c1.4-10.7-5.9-21.1-15.2-26.4c-9.3-5.5-20.4-7.1-30.9-8.6c-29.9-4.1-59.8-8.5-89.7-12.6c-9.7-1.4-20-2.6-28.7,2.1
		c-13.5,7.3-16.4,25.2-15.7,40.6c0.2,3.5,0.3,6.7,0.7,10.2c1.6,23.2-19.2,41.8-42.2,37.5c-0.2,0-0.2,0-0.3-0.2
		c-12.4-2.6-24.4-11.2-26.3-23.7c-3.6-21.1,21.8-39.9,16.6-60.8c-5-20.2-27.8-21.4-53-21.4c-51.8,0-103.5,7.9-155.1,11.9
		c-25.9,2.1-51.7,4-77.6,5.9c-12.6,1-25.2,1.9-38,2.9c-9.7,0.7-22.3-0.3-31.3,3.3c-17.6,7.3-6.4,30.1-2.6,43.2
		c5.2,17.1,11.6,33.7,19.4,49.6c4.8,10-1.2,21.9-12.3,23.3c-4.1,0.5-8.1,0-11.9-2.1c-5.9-3.5-8.8-10-11.6-16.2L112,567.9
		c-3.6-8.3-12.4-13-21.4-11.2c-8.1,1.6-16.2,2.2-24.2,1.2c-13.1-1.7-26.3-9.2-30.9-21.6c-6.6-17.6,5.5-35.6,11.7-51.5
		c3.3-8.3,3.8-14.9,2.1-23.8c-2.2-13-5.5-22.6-2.1-32.5c4.8-13.8,19.5-6.7,30.1-7.8c11.7-1,23-5,33.7-9.3
		c22.8-9.2,44.6-21.1,64.8-35.2c19.4-13.6,11.9-37.8-7.9-47c-4.5-2.1-9.3-3.1-13.5-6c-13.8-9.7-1.6-40.8,4.1-52.2
		c4-8.1,11.6-15.4,17.3-22.1c6.9-8.3,15.7-21.6,27-23.5c11.1-1.7,14,8.6,10,17.1c-2.1,4.5-5.4,8.3-8.1,12.6
		c-18,28.2,1,56.7,21.3,76.9C232.7,338.7,239.3,343.5,246,347.8z"/>
	<path d="M552.9,470.7c42.5,9.3,84.7,20.2,125.8,37.5c2.2,1,4.8,2.1,7.3,1.6c2.4-0.3,4.7-3.1,3.8-5.4c-0.7-1.7-2.6-2.6-4.3-3.1
		c-49.4-17.3-99.7-31.8-150.7-43.7c-35.2-8.3-70.3-11.6-103.1-27.6c-12.1-5.9-25.7-8.5-38.7-11.6c-49.2-11.6-96.4-30.6-143.4-49.4
		c-14.2-5.7-28.9-13.8-39.6-25.4c-13-14.3-13.3-31.3-21.9-47.3c-2.8-5.2-8.3-9.3-14-8.6c-5.4,0.7-9.3,5.4-12.1,10
		c-2.6,4.5-4.7,10.5-1.9,15c2.6,4.1,7.9,5.2,12.4,6.9c37.1,13.5,22.3,50.3,0.7,69.3c-19.7,17.3-47.9,33.7-74.3,37.1
		c-10,1.4-20.6,1.7-29.4,6.7c-6.4,3.6-18.5,15.5-9,22.3c9.7,6.9,23.3-3.8,31.8-8.3c12.6-6.6,26.6-9.7,39.4-16.1
		c15.7-7.8,30.4-17.6,44.1-28.7c13.8-11.2,31.6-17.1,49.4-15.7c16.9,1.2,33.3,6,49.8,10.9c50.3,14.7,100.4,29.4,150.5,44.1
		C467.5,453,510.4,461.3,552.9,470.7z"/>
	<path fill="#FFFFFF" d="M273.8,275.8"/>
	<g>
		<path fill="#FFFFFF" d="M239.3,251.9c0.2-1.2,16.1-43.4,47.7-71.9c26.6-23.8,60.8-42.7,92.4-60.1c18.5-10.2,38.5-10.2,48.9-7.4
			c24.5,6.4,69.6,46.1,62.9,75.8c-7.4,33.2-46.8,7.4-96.9,66.9c-29.4,34.7-15.9,73.3-62,92.4c-24.2,10-52.2-19.2-66-35.1
			C251.4,295.8,237,275.4,239.3,251.9z"/>
		<path d="M288.5,232.2c-0.9,1.6-1.6,3.3-2.2,5c-9.3,24.9,3.6,75.7,38.4,72.9c32.5-2.6,18.1-73.8,57.9-90.5
			c46-19.2,55.6-35.1,50.6-46.5c-21.9-50.4-101.8,19.2-111.1,26.1C309.1,209.3,296,217.6,288.5,232.2z"/>
	</g>
	<path d="M49.6,458.7"/>
	<path fill="#FFFFFF" d="M779,345.8c-0.2-0.2-0.3-0.3-0.7-0.3c-31.3-3.1-55.1,1.4-81.7-4.8c-26.6-6-49.9-31.4-66.9-51.3
		c-14.5-17.1-25.6-36.5-34.6-56.8c-9-20.4-14.9-39.4-33.2-53.6c-17.4-13.5-34.6-27.6-51.8-41.5c-16.8-13.1-33.5-26.1-50.3-39
		c-1.2-1-2.6-1.7-4.3-2.8c-1-0.5-2.1-0.5-2.9,0.2c-3.6,3.5,8.8,15.5,14.5,20c19.5,15.4,39.6,30.4,57,48.2
		c21.1,21.1,36.1,45.1,37.1,76c0.7,18,10.7,30.6,25.2,40.3c19.7,13,39.6,24.5,57.4,40.4c8.1,7.3,16.4,14.5,25.2,21.3
		c8.1,6.4,15.9,13.5,26.1,16.4c24.2,6.9,54.3,6.9,78.4,3.5c2.2-0.3,4.5-1,6.2-2.4C785.8,354.9,783.3,348.7,779,345.8z"/>
</g>
<rect x="20.4" y="725.2" fill="none" width="979.6" height="194.7"/>
<g enable-background="new    ">
	<path d="M96.4,735.7c4.1-9.8,8.5-10.5,15.2-10.5h10.2c11.2,0,11.2,7.6,11.2,15v103.7c0,7.6,0,15-11.2,15h-9.5
		c-11.2,0-11.2-7.6-11.2-15V792c0-1.2-0.3-1.9-0.9-1.9s-1.2,0.7-1.7,1.9c-13.3,26.6-13.8,33-20,33c-6.2,0-6.7-6.4-20-33
		c-0.5-1.2-1.4-1.9-1.7-1.9c-0.5,0-0.9,0.7-0.9,1.9v51.8c0,7.6,0,15-11.2,15h-9.5c-11.2,0-11.2-7.6-11.2-15V740.2
		c0-7.6,0-15,11.2-15h10c6.9,0,11.2,0.9,15.4,10.5L74.6,769c1.6,3.5,2.4,5.4,3.8,5.4c1.4,0,2.2-1.9,3.8-5.4L96.4,735.7z"/>
	<path d="M171.9,824.5c0.3,4.1,4.1,6.2,7.9,6.2c10.7,0,14.3-0.3,18.3-0.3c7.9,0,10.4,2.2,10.4,7.9v13.1c0,5.7-1.9,7.6-7.6,7.6h-49.8
		c-11.2,0-11.2-11.2-11.2-15V740.4c0-7.6,0-15,11.2-15h48.5c4.7,0,8.8,1.9,8.8,5.7v16.1c0,4.5-3.8,4.7-8.5,4.7
		c-7.4,0-13.1-0.3-18-0.3c-10.4,0-10.4,3.8-10.4,9.8c0,12.3,0,15.4,9.5,15.4c11.7,0,13.6-0.3,18-0.3c6.6,0,6.9,6.6,6.9,8.6V797
		c0,5.7-4,6-8.6,6c-9.7,0-15.7-0.3-19.5-0.3c-6,0-6,2.6-6,8.8L171.9,824.5L171.9,824.5z"/>
	<path d="M307.9,849.6c0,8.6-5.9,9.5-16.6,9.5h-10c-11.7,0-5.9-28.3-13.3-28.3h-15c-7.6,0-3.3,28.3-14.5,28.3h-8.8
		c-9.8,0-15.7-0.7-15.7-9.5c0-11.2,4.5-21.3,19.2-109.4c1.6-9.5,5.4-15,12.8-15h29c7.6,0,11.2,5.7,13.1,15
		C300.8,817.6,307.9,838.3,307.9,849.6z M252.9,799.4c0,2.9,1.4,2.9,7.4,2.9c5.9,0,7.4,0,7.4-2.8c0-0.7,0-1.7-0.2-2.9
		c-2.2-18.5-2.9-41.3-7.1-41.3c-4,0-5.4,22.6-7.1,41.3C252.9,797.7,252.9,798.8,252.9,799.4z"/>
	<path d="M347.8,845.2c-0.3,7.1-0.7,13.8-11.2,13.8h-9.5c-11.2,0-11.2-7.6-11.2-15v-86.2c0-4.7-0.9-5.9-4.8-5.9
		c-1.4,0-3.3,0.2-5.5,0.2c-4.7,0-8.5-0.7-8.5-5.4v-16.1c0-3.8,4.1-5.7,8.8-5.7h52c4.7,0,8.8,1.9,8.8,5.7v16.1c0,4.5-3.8,5.4-8.5,5.4
		c-1.4,0-2.9-0.2-5.4-0.2c-4.7,0-5,1.2-5,5.9L347.8,845.2L347.8,845.2z"/>
	<path d="M409.8,859.1c-11.2,0-11.2-7.6-11.2-15v-28.5c0-10.2-9.8-33.7-13.1-41.6l-0.5-1.4c-3.8-8.5-14.9-37.1-14.9-42.3
		c0-4.8,4.1-4.8,5.5-4.8H397c6,0,7.9,8.1,9.5,15c1.4,6,7.6,27.1,7.9,28.9c0.2,1.4,1.2,2.1,1.9,2.1c0.9,0,1.7-0.5,1.9-1.9
		c0.2-1.7,5.9-23,7.4-29c1.7-6.9,4-15,10.7-15h16.8c5.7,0,7.8,0,7.8,4.8c0,5.4-10.9,34-14.7,42.3c-1.7,3.8-4.8,12.4-8.8,22.3
		c-5.9,14.7-6.4,16.6-6.4,33.2v16.8c0,7.4,0,14.3-11.2,14.3L409.8,859.1L409.8,859.1z"/>
	<path d="M560.1,845.8c-3.6,13-7.9,13.1-14.7,13.1h-10.4c-10.7,0-12.3-5.5-14.3-15c-4-19-19-108.3-19-113.9c0-3.8,0.5-4.8,4.7-4.8
		h20.4c4.8,0,5.9,2.8,6.6,8.1l12.3,81.5c0,0.5,0.2,0.9,0.7,0.9s0.7-0.3,0.9-0.9c0.2-0.9,6-43.9,6-47c-1.6-10-5-30.9-5.5-35.2
		c-0.2-0.9-0.2-1.9-0.2-2.6c0-3.5,1.2-4.8,4.5-4.8s8.6,0.3,12.4,0.3c1.7,0,14.5-0.3,16.2-0.3c2.9,0,4.3,1.4,4.3,4.8
		c0,0.7-0.2,1.7-0.2,2.6c-0.3,4.3-3.3,25.4-3.3,35.4c0,3.5,8.5,46.8,8.5,46.8c0,0.5,0.2,0.9,0.7,0.9c0.5,0,0.7-0.3,0.9-0.9l8.1-82.2
		c0.2-4.7,1.9-7.6,6.2-7.6H628c2.9,0,3.6,1.4,3.6,4.5c0,5.9-12.6,95.2-16.4,114.2c-1.7,9-2.6,15-12.3,15h-13.6
		c-7.1,0-10.4,0-13.3-13.1c-2.6-11.1-6-25.1-8.3-25.1C566.7,820.7,562.5,836.8,560.1,845.8z"/>
	<path d="M636.3,776.8c0-30.4,2.8-52.5,42.7-52.5c37.8,0,40.6,21.9,40.6,51.8c0,11.2,0.5,22.5,0.5,32.5c0,29.7-4.7,51.5-41.1,51.5
		c-39.7,0-42.7-22.3-42.7-52.3c0-5,0.2-10.2,0.2-15.4C636.5,786.8,636.3,781.8,636.3,776.8z M668.6,761.1v59.4
		c0,5.7,0,13.1,9.5,13.1c9.5,0,9.5-7.6,9.5-13.1v-59.4c0-4.7,0-10.4-9.5-10.4C668.6,750.7,668.6,756.3,668.6,761.1z"/>
	<path d="M774,725.2c28.2,0,35.9,20.2,35.9,42.3c0,13.6-0.2,22.3-10.9,31.3c-5.4,4.5-8.6,1.9-8.6,9c0,7.8,2.4,17.1,8.6,17.1
		c3.5,0,5.5-0.9,6-0.9c6,0,6.9,5,6.9,13.8c0,4.1-0.2,9.2-0.2,14.9c0,3.8-1.6,7.1-11.2,7.1c-17.3,0-26.3-12.8-29.7-26.8
		c-4.5-17.4-10.2-20.6-11.2-20.6c-1.6,0-1.6,2.9-1.6,4.5v26.8c0,7.6,0,15-11.2,15h-13.1c-7.6,0-7.6-7.6-7.6-15V740
		c0-7.6,0-15,11.2-15H774V725.2z M757.8,758.7c0,2.4,0.2,6.7,0.2,10.7c0,3.8-0.2,7.1-0.2,9.5c0,6.2,1.2,7.4,8.6,7.4
		c8.5,0,10.4-8.3,10.4-16.8s-1.9-18.8-10.4-18.8C758.8,750.7,757.8,751.9,757.8,758.7z"/>
	<path d="M904.1,853.4c0,3.5-2.9,5.7-9.8,5.7h-9.7c-12.1,0-12.8-2.6-16.9-14.9c-8.5-24.7-11.7-41.6-17.1-41.6
		c-1.2,0-1.6,1.7-1.6,4.1s0.3,5.9,0.3,9V844c0,7.6,0,15-11.2,15h-9.5c-11.2,0-11.2-7.6-11.2-15V740.4c0-7.6,0-15,11.2-15h9.5
		c11.2,0,11.2,7.6,11.2,15c0,33.3,0,33.3,0.9,33.3c5.7,0,10.9-22.3,12.8-26.8c6.2-14.9,6.7-21.6,16.4-21.6h10.9
		c6.4,0,11.7,0,11.7,5.4c0,2.2-0.9,5.5-3.3,10c-6,12.4-22.6,42.2-22.6,43.4c0,0.7,0.7,1.9,2.1,4.7
		C880.3,792.7,903.6,843.7,904.1,853.4z"/>
	<path d="M948.7,724.3c15.7,0,26.3,2.8,26.3,8.1v14.5c0,2.1-0.7,5.7-7.1,5.7h-1.6c-2.9,0-9.8-2.1-15.2-2.1c-4.5,0-8.1,1.6-8.1,7.6
		c0,5.9,1.7,8.8,9,14.9c22.5,18.5,27,31.6,27,47c0,8.6-0.2,16.6-5,24c-6.2,9.5-16.1,13-20.2,14.2c-5,1.4-12.3,2.1-18.1,2.1
		c-14,0-27.5-2.6-27.5-10.2v-14.5c0-2.2,1.9-4.5,6.9-4.5c4.8,0,9,2.8,19.9,2.8c5.4,0,12.4-4.1,12.4-10c0-4.3-0.2-7.6-11.7-18.8
		c-17.4-17.1-25.7-25.1-25.7-40.6C909.6,727.1,933.7,724.3,948.7,724.3z"/>
</g>
</svg>
